<?xml version="1.0" encoding="UTF-8"?><svg id="Layer_2" xmlns="http://www.w3.org/2000/svg" viewBox="0 0 103.97 103.96"><defs><style>.cls-1{fill:#ff9385;}.cls-2{fill:#ffb55e;}.cls-3{fill:#80cb9e;}.cls-4{fill:#ff7866;}.cls-5{fill:#7666e1;}.cls-6{fill:#ddd9f8;}.cls-7{fill:#99d5b1;}</style></defs><g id="Tiles"><rect class="cls-2" x=".03" width="103.94" height="103.94"/><rect class="cls-5" x="10.53" y="11.42" width="81.53" height="81.53"/><polygon class="cls-3" points="10.53 11.42 28.13 11.42 10.53 27.85 10.53 11.42"/><path class="cls-6" d="M56.5,11.42l24.69,70.78c1.93,5.32,4.08,8.61,6.68,9.63v1.13h-28.31v-1.13c5.44-1.02,6.68-4.53,4.53-9.63l-5.21-14.95h-24.46l-4.64,14.95c-1.13,4.19-1.25,8.15,7.36,9.63v1.13H14.94v-1.13c4.98-2.61,6.8-5.78,8.72-12.23l19.03-59.46-3.06-8.72h16.87ZM56.62,60.68l-10.53-30.58-9.51,30.58h20.04Z"/><path class="cls-4" d="M74.7,29.34c0,16.16,13.1,29.27,29.27,29.27V.07c-16.16,0-29.27,13.1-29.27,29.27Z"/><circle class="cls-4" cx="11.65" cy="86.98" r="6.02"/><polygon class="cls-5" points="11.65 93 .07 103.92 23.23 103.92 11.65 93"/><polygon class="cls-7" points="50.24 .08 0 .08 0 50.32 50.24 .08"/><circle class="cls-1" cx="14.22" cy="14" r="6.39"/><rect class="cls-4" x="92.42" y="81.42" width="11.17" height="11.91" transform="translate(185.38 -10.63) rotate(90)"/><polygon class="cls-7" points="103.96 81.79 92.05 81.79 92.05 92.95 103.96 81.79"/><rect class="cls-4" x="80.63" y="92.49" width="10.93" height="11.91" transform="translate(184.55 12.35) rotate(90)"/><polygon class="cls-7" points="92.05 92.98 80.15 92.98 80.15 103.91 92.05 92.98"/><rect class="cls-4" x="92.5" y="92.49" width="11.02" height="11.91" transform="translate(196.45 .44) rotate(90)"/><polygon class="cls-7" points="103.96 92.94 92.05 92.94 92.05 103.96 103.96 92.94"/></g></svg>