<?xml version="1.0" encoding="UTF-8"?><svg id="Layer_2" xmlns="http://www.w3.org/2000/svg" viewBox="0 0 104.08 103.96"><defs><style>.cls-1{fill:#d3e7e7;}.cls-2{fill:#80cb9e;}.cls-3{fill:#ffb55e;}.cls-4{fill:#80cb9e;}.cls-5{fill:#ff7866;}.cls-6{fill:#e5f1f1;}.cls-7{fill:#7566e1;}.cls-8{fill:#ddd9f8;}</style></defs><g id="Tiles"><rect class="cls-7" x=".08" width="103.94" height="103.94"/><rect class="cls-2" x="10.58" y="11.42" width="81.53" height="81.53"/><polygon class="cls-4" points="10.58 11.42 28.18 11.42 10.58 27.85 10.58 11.42"/><path class="cls-6" d="M56.55,11.42l24.69,70.78c1.93,5.32,4.08,8.61,6.68,9.63v1.13h-28.31v-1.13c5.44-1.02,6.68-4.53,4.53-9.63l-5.21-14.95h-24.46l-4.64,14.95c-1.13,4.19-1.25,8.15,7.36,9.63v1.13H14.99v-1.13c4.98-2.61,6.8-5.78,8.72-12.23l19.03-59.46-3.06-8.72h16.87ZM56.67,60.68l-10.53-30.58-9.51,30.58h20.04Z"/><polygon class="cls-5" points="76.22 103.96 104.03 103.96 104.03 76.15 76.22 103.96"/><circle class="cls-1" cx="96.16" cy="96.26" r="3.54"/><path class="cls-3" d="M21.69,21.5C33.57,21.5,43.2,11.88,43.2,0H.19C.19,11.88,9.82,21.5,21.69,21.5Z"/><path class="cls-3" d="M21.69,21.5C21.69,9.63,12.07,0,.19,0v43c11.87,0,21.5-9.63,21.5-21.5Z"/><rect class="cls-5" x="84.22" y="3.62" width="16.41" height="16.41" transform="translate(35.43 -61.89) rotate(45)"/><path class="cls-8" d="M92.47.28c0,6.41-5.2,11.61-11.61,11.61,6.41,0,11.61,5.2,11.61,11.61,0-6.41,5.2-11.61,11.61-11.61-6.41,0-11.61-5.2-11.61-11.61Z"/><path class="cls-5" d="M7.79,88.36c-4.3,0-7.79,3.49-7.79,7.79h15.57c0-4.3-3.49-7.79-7.79-7.79Z"/><polygon class="cls-3" points="0 103.93 7.79 96.15 15.57 103.93 0 103.93"/></g></svg>