<?xml version="1.0" encoding="UTF-8"?><svg id="Layer_2" xmlns="http://www.w3.org/2000/svg" viewBox="0 0 104.04 104.08"><defs><style>.cls-1{fill:#5440da;}.cls-2{fill:#ff9385;}.cls-3{fill:#988ce9;}.cls-4{fill:#80cb9e;}.cls-5{fill:#ffb55e;}.cls-6{fill:#ff7866;}</style></defs><g id="Tiles"><rect class="cls-4" x=".07" y=".08" width="103.94" height="103.94"/><rect class="cls-1" x="10.56" y="11.5" width="81.53" height="81.53"/><circle class="cls-6" cx="10.8" cy="66.9" r="5.5"/><path class="cls-2" d="M91.94,25.89v.83c-3.71,1.9-5.2,4.37-6.43,8.91l-13.36,50.07h-9.73l-11.14-41.9-10.64,41.9h-9.73l-15.51-51.97c-1.07-3.79-2.72-6.1-4.87-7.01v-.83h20.54v.83c-3.88.74-4.54,3.3-3.22,7.01l11.05,39.76,9.65-39.43-2.23-8.17h12.46l11.88,47.76,10.48-39.92c.99-3.71.25-6.1-5.36-7.01v-.83h16.17Z"/><polygon class="cls-5" points="92.33 104.01 80.67 92.96 92.33 81.9 103.98 92.96 92.33 104.01"/><path class="cls-6" d="M92.38,81.95c0,6.11-5.22,11.06-11.66,11.06,6.44,0,11.66,4.95,11.66,11.06,0-6.11,5.22-11.06,11.66-11.06-6.44,0-11.66-4.95-11.66-11.06Z"/><polygon class="cls-5" points=".04 82.51 10.6 93.2 .07 104.05 .04 82.51"/><polygon class="cls-6" points="21.23 82.52 10.6 93.23 21.21 104.03 21.23 82.52"/><path class="cls-6" d="M0,.14v27.63C15.26,27.77,27.63,15.4,27.63.14H0Z"/><path class="cls-5" d="M0,.14v16.12C8.91,16.27,16.12,9.05,16.12.14H0Z"/><polygon class="cls-3" points="104.02 0 92.13 0 92.13 11.89 104.02 0"/><path class="cls-6" d="M98.04,5.97c0,3.29,2.67,5.96,5.96,5.96V.01c-3.29,0-5.96,2.67-5.96,5.96Z"/><rect class="cls-3" x="3.42" y="75.42" width="14.5" height="14.5" transform="translate(76.67 133.58) rotate(135)"/></g></svg>