<?xml version="1.0" encoding="UTF-8"?><svg id="Layer_2" xmlns="http://www.w3.org/2000/svg" viewBox="0 0 104.12 104.03"><defs><style>.cls-1{fill:#ffe1bf;}.cls-2{fill:#5440da;}.cls-3{fill:#988ce9;}.cls-4{fill:#d3e7e7;}.cls-5{fill:#80cb9e;}.cls-6{fill:#ffb55e;}.cls-7{fill:#ff7866;}.cls-8{fill:#7666e1;}.cls-9{fill:#99d5b1;}</style></defs><g id="Tiles"><rect class="cls-6" x=".15" y=".04" width="103.94" height="103.94"/><rect class="cls-7" x="11.49" y="11.46" width="81.53" height="81.53"/><circle class="cls-8" cx="11.12" cy="65.61" r="5.78"/><polygon class="cls-9" points="11.12 71.39 0 81.87 22.24 81.87 11.12 71.39"/><rect class="cls-6" x=".45" y="11.21" width="10.83" height="11.23" transform="translate(-10.96 22.69) rotate(-90)"/><polygon class="cls-8" points=".25 22.24 11.48 22.24 11.48 11.41 .25 22.24"/><rect class="cls-6" x="11.39" y=".25" width="11.27" height="11.06" transform="translate(11.24 22.81) rotate(-90)"/><polygon class="cls-8" points="11.49 11.42 22.55 11.42 22.55 .15 11.49 11.42"/><rect class="cls-6" x=".19" y=".12" width="11.27" height="11.34" transform="translate(.04 11.61) rotate(-90)"/><polygon class="cls-8" points=".16 11.42 11.49 11.42 11.49 .15 .16 11.42"/><path class="cls-1" d="M79.04,92.98H22.31v-1.13c4.19-1.81,6.12-3.96,6.45-5.32.11-.68.23-1.7.23-3.17V21.07c0-2.83.11-3.74-1.93-5.66-1.02-1.02-2.61-1.93-4.76-2.83v-1.13h29.1v1.13c-4.19,1.81-6,3.96-6.34,5.32-.11.68-.23,1.7-.23,3.17v65.45h22.88c2.15,0,3.85-.68,5.32-2.15,1.36-1.47,3.4-4.64,6-9.63h1.13l-1.13,18.23Z"/><path class="cls-2" d="M11.16,81.87c-6.11,0-11.06,4.95-11.06,11.06h22.13c0-6.11-4.95-11.06-11.06-11.06Z"/><polygon class="cls-5" points=".09 104 11.16 92.93 22.22 104 .09 104"/><path class="cls-2" d="M104.12,104.03v-26.99c-14.91,0-26.99,12.08-26.99,26.99h26.99Z"/><circle class="cls-6" cx="89.81" cy="89.87" r="3.57"/><path class="cls-4" d="M81.9,11.19c0,6.12,4.96,11.09,11.09,11.09V.1c-6.12,0-11.09,4.96-11.09,11.09Z"/><polygon class="cls-3" points="104.07 22.27 92.98 11.19 104.07 .1 104.07 22.27"/><path class="cls-5" d="M70.47,0c0,6.36-5.2,11.51-11.61,11.51,6.41,0,11.61,5.16,11.61,11.51,0-6.36,5.2-11.51,11.61-11.51-6.41,0-11.61-5.16-11.61-11.51Z"/></g></svg>